<svg width="67" height="67" viewBox="0 0 67 67" fill="none" xmlns="http://www.w3.org/2000/svg">
<circle cx="33.5" cy="33.5" r="33.5" fill="#D2B887"/>
<path d="M35.057 12.8834C31.9633 12.6578 28.8573 13.1011 25.9502 14.1831C23.0431 15.2651 20.4031 16.9604 18.2097 19.1538C16.0163 21.3472 14.321 23.9872 13.239 26.8943C12.157 29.8014 11.7137 32.9074 11.9393 36.0011C12.7178 47.4411 22.7088 56.0697 34.1704 56.0697H42.1502C43.3396 56.0697 44.3128 55.0965 44.3128 53.9071C44.3128 52.7177 43.3396 51.7445 42.1502 51.7445H34.2136C26.1473 51.7445 18.7513 46.5112 16.7402 38.7043C13.5179 26.1615 25.1958 14.462 37.7386 17.7059C45.5671 19.6954 50.8005 27.0914 50.8005 35.1577V37.5365C50.8005 39.245 49.265 40.9318 47.5566 40.9318C45.8482 40.9318 44.3128 39.245 44.3128 37.5365V34.8333C44.3128 29.4053 40.4634 24.5179 35.1003 23.761C33.3939 23.5073 31.6517 23.6649 30.0185 24.2206C28.3854 24.7764 26.9086 25.7142 25.7112 26.956C24.5138 28.1979 23.6303 29.7078 23.1344 31.3601C22.6385 33.0124 22.5445 34.7593 22.8602 36.4553C23.2405 38.4984 24.2015 40.3886 25.6283 41.8998C27.055 43.4109 28.887 44.4788 30.9049 44.9757C34.884 45.9056 38.6685 44.6297 41.1554 42.0995C43.0801 44.7379 46.9295 46.1219 50.4544 44.7162C53.3523 43.5701 55.1256 40.6074 55.1256 37.4933V35.1361C55.1256 23.6529 46.497 13.6619 35.057 12.8834ZM33.5 40.9318C29.9101 40.9318 27.0123 38.0339 27.0123 34.4441C27.0123 30.8542 29.9101 27.9564 33.5 27.9564C37.0898 27.9564 39.9877 30.8542 39.9877 34.4441C39.9877 38.0339 37.0898 40.9318 33.5 40.9318Z" fill="#F6EBDA"/>
</svg>
