<svg width="80" height="81" viewBox="0 0 80 81" fill="none" xmlns="http://www.w3.org/2000/svg">
<path d="M60 20.5C66.9 27.3 69.5 36.8 67.8667 45.6667C69.2333 48.0667 70 50.8667 70 53.8333C70 58.2536 68.2441 62.4928 65.1184 65.6184C61.9928 68.7441 57.7536 70.5 53.3333 70.5C50.3667 70.5 47.5667 69.7333 45.1667 68.3667C36.3 70 26.8 67.4 20 60.5C13.1 53.7 10.5 44.2 12.1333 35.3333C10.7667 32.9333 10 30.1333 10 27.1667C10 22.7464 11.7559 18.5072 14.8816 15.3816C18.0072 12.2559 22.2464 10.5 26.6667 10.5C29.6333 10.5 32.4333 11.2667 34.8333 12.6333C43.7 11 53.2 13.6 60 20.5ZM40.1333 57.7C49.7 57.7 54.4667 53.1 54.4667 46.9C54.4667 42.9333 52.6 38.7 45.3667 37.0667L38.7333 35.6C36.2 35.0333 33.3333 34.2667 33.3333 31.9C33.3333 29.5 35.3333 27.8333 39 27.8333C46.4333 27.8333 45.7333 32.9333 49.4333 32.9333C51.3667 32.9333 53.0333 31.8 53.0333 29.8333C53.0333 25.2667 45.7333 21.8333 39.5333 21.8333C32.8333 21.8333 25.6667 24.7 25.6667 32.3C25.6667 35.9667 26.9667 39.8667 34.1667 41.6667L43.1333 43.9333C45.8333 44.6 46.5 46.1 46.5 47.5C46.5 49.7667 44.2333 52 40.1333 52C32.1 52 33.2 45.8333 28.9 45.8333C26.9667 45.8333 25.5667 47.1667 25.5667 49.0667C25.5667 52.7667 30 57.7 40.1333 57.7Z" fill="#D2B887"/>
</svg>
