<svg width="80" height="81" viewBox="0 0 80 81" fill="none" xmlns="http://www.w3.org/2000/svg">
<path d="M40 7.1665C21.6 7.1665 6.66663 22.0998 6.66663 40.4998C6.66663 58.8998 21.6 73.8332 40 73.8332C58.4 73.8332 73.3333 58.8998 73.3333 40.4998C73.3333 22.0998 58.4 7.1665 40 7.1665ZM55.4666 29.8332C54.9666 35.0998 52.8 47.8998 51.7 53.7998C51.2333 56.2998 50.3 57.1332 49.4333 57.2332C47.5 57.3998 46.0333 55.9665 44.1666 54.7332C41.2333 52.7998 39.5666 51.5998 36.7333 49.7332C33.4333 47.5665 35.5666 46.3665 37.4666 44.4332C37.9666 43.9332 46.5 36.1665 46.6666 35.4665C46.6898 35.3605 46.6867 35.2504 46.6577 35.1459C46.6286 35.0413 46.5745 34.9454 46.5 34.8665C46.3 34.6998 46.0333 34.7665 45.8 34.7998C45.5 34.8665 40.8333 37.9665 31.7333 44.0998C30.4 44.9998 29.2 45.4665 28.1333 45.4332C26.9333 45.3998 24.6666 44.7665 22.9666 44.1998C20.8666 43.5332 19.2333 43.1665 19.3666 41.9998C19.4333 41.3998 20.2666 40.7998 21.8333 40.1665C31.5666 35.9332 38.0333 33.1332 41.2666 31.7998C50.5333 27.9332 52.4333 27.2665 53.7 27.2665C53.9666 27.2665 54.6 27.3332 55 27.6665C55.3333 27.9332 55.4333 28.2998 55.4666 28.5665C55.4333 28.7665 55.5 29.3665 55.4666 29.8332Z" fill="#D2B887"/>
</svg>
