<svg width="80" height="81" viewBox="0 0 80 81" fill="none" xmlns="http://www.w3.org/2000/svg">
<path fill-rule="evenodd" clip-rule="evenodd" d="M40 7.1665C21.59 7.1665 6.66663 22.0898 6.66663 40.4998C6.66663 46.7998 8.41663 52.6998 11.46 57.7265L8.48663 67.8332C8.31591 68.4135 8.30467 69.029 8.45411 69.6151C8.60354 70.2012 8.90812 70.7363 9.33582 71.164C9.76353 71.5917 10.2986 71.8963 10.8847 72.0457C11.4708 72.1951 12.0864 72.1839 12.6666 72.0132L22.7733 69.0398C27.9691 72.183 33.9274 73.8409 40 73.8332C58.41 73.8332 73.3333 58.9098 73.3333 40.4998C73.3333 22.0898 58.41 7.1665 40 7.1665ZM32.46 48.0432C39.2033 54.7832 45.64 55.6732 47.9133 55.7565C51.37 55.8832 54.7366 53.2432 56.0466 50.1798C56.2106 49.7985 56.2699 49.3802 56.2183 48.9683C56.1668 48.5564 56.0062 48.1657 55.7533 47.8365C53.9266 45.5032 51.4566 43.8265 49.0433 42.1598C48.5397 41.8106 47.9202 41.6704 47.3153 41.7686C46.7104 41.8668 46.1672 42.1959 45.8 42.6865L43.8 45.7365C43.6943 45.8998 43.5304 46.0169 43.3417 46.0639C43.1529 46.111 42.9533 46.0845 42.7833 45.9898C41.4266 45.2132 39.45 43.8932 38.03 42.4732C36.61 41.0532 35.37 39.1665 34.6733 37.8965C34.589 37.7347 34.5652 37.5481 34.6061 37.3703C34.6471 37.1925 34.7501 37.0352 34.8966 36.9265L37.9766 34.6398C38.4175 34.2585 38.702 33.7279 38.7759 33.1497C38.8497 32.5715 38.7075 31.9864 38.3766 31.5065C36.8833 29.3198 35.1433 26.5398 32.62 24.6965C32.2936 24.462 31.9122 24.3158 31.5128 24.272C31.1133 24.2282 30.7094 24.2883 30.34 24.4465C27.2733 25.7598 24.62 29.1265 24.7466 32.5898C24.83 34.8632 25.72 41.2998 32.46 48.0432Z" fill="#D2B887"/>
</svg>
